HIERARCHY
ROOT Hips
{
  OFFSET -1.06218 88.2488 0.621538
  CHANNELS 6 Xposition Yposition Zposition Zrotation Xrotation Yrotation
  JOINT Spine
  {
    OFFSET 0 10.1816 0.1315
    CHANNELS 6 Xposition Yposition Zposition Zrotation Xrotation Yrotation
    JOINT Spine1
    {
      OFFSET 0 10.0835 -1.0008
      CHANNELS 6 Xposition Yposition Zposition Zrotation Xrotation Yrotation
      JOINT Spine2
      {
        OFFSET 0 9.1 -1.3734
        CHANNELS 6 Xposition Yposition Zposition Zrotation Xrotation Yrotation
        JOINT Neck
        {
          OFFSET 0 16.6717 -2.5162
          CHANNELS 6 Xposition Yposition Zposition Zrotation Xrotation Yrotation
          JOINT Head
          {
            OFFSET 0 9.6179 1.685
            CHANNELS 6 Xposition Yposition Zposition Zrotation Xrotation Yrotation
            JOINT HeadTop_End
            {
              OFFSET 0 17.8152 2.585
              CHANNELS 6 Xposition Yposition Zposition Zrotation Xrotation Yrotation
              End Site
              {
                OFFSET 0 0 0
              }
            }
            JOINT LeftEye
            {
              OFFSET 3.0676 6.4095 9.2836
              CHANNELS 6 Xposition Yposition Zposition Zrotation Xrotation Yrotation
              End Site
              {
                OFFSET 0 0 0
              }
            }
            JOINT RightEye
            {
              OFFSET -3.0676 6.4095 9.2835
              CHANNELS 6 Xposition Yposition Zposition Zrotation Xrotation Yrotation
              End Site
              {
                OFFSET 0 0 0
              }
            }
          }
        }
        JOINT LeftShoulder
        {
          OFFSET 4.5704 10.946 -2.628
          CHANNELS 6 Xposition Yposition Zposition Zrotation Xrotation Yrotation
          JOINT LeftArm
          {
            OFFSET 10.5924 -0.5246 -2.2321
            CHANNELS 6 Xposition Yposition Zposition Zrotation Xrotation Yrotation
            JOINT LeftForeArm
            {
              OFFSET 27.8415 -0.0001 0
              CHANNELS 6 Xposition Yposition Zposition Zrotation Xrotation Yrotation
              JOINT LeftHand
              {
                OFFSET 28.3288 0 0
                CHANNELS 6 Xposition Yposition Zposition Zrotation Xrotation Yrotation
                JOINT LeftHandThumb1
                {
                  OFFSET 2.4661 -1.575 2.6824
                  CHANNELS 6 Xposition Yposition Zposition Zrotation Xrotation Yrotation
                  JOINT LeftHandThumb2
                  {
                    OFFSET 3.2298 -1.8647 1.8647
                    CHANNELS 6 Xposition Yposition Zposition Zrotation Xrotation Yrotation
                    JOINT LeftHandThumb3
                    {
                      OFFSET 2.6526 -1.5315 1.5315
                      CHANNELS 6 Xposition Yposition Zposition Zrotation Xrotation Yrotation
                      End Site
                      {
                        OFFSET 1.9546 -1.1285 1.1285
                      }
                    }
                  }
                }
                JOINT LeftHandIndex1
                {
                  OFFSET 9.1093 -0.5171 2.2601
                  CHANNELS 6 Xposition Yposition Zposition Zrotation Xrotation Yrotation
                  JOINT LeftHandIndex2
                  {
                    OFFSET 3.6764 0 0
                    CHANNELS 6 Xposition Yposition Zposition Zrotation Xrotation Yrotation
                    JOINT LeftHandIndex3
                    {
                      OFFSET 2.8831 0 0
                      CHANNELS 6 Xposition Yposition Zposition Zrotation Xrotation Yrotation
                      End Site
                      {
                        OFFSET 2.3927 0 0
                      }
                    }
                  }
                }
                JOINT LeftHandMiddle1
                {
                  OFFSET 9.5334 0 0
                  CHANNELS 6 Xposition Yposition Zposition Zrotation Xrotation Yrotation
                  JOINT LeftHandMiddle2
                  {
                    OFFSET 3.6982 0 0
                    CHANNELS 6 Xposition Yposition Zposition Zrotation Xrotation Yrotation
                    JOINT LeftHandMiddle3
                    {
                      OFFSET 2.9509 0 0
                      CHANNELS 6 Xposition Yposition Zposition Zrotation Xrotation Yrotation
                      End Site
                      {
                        OFFSET 2.8339 0 0
                      }
                    }
                  }
                }
                JOINT LeftHandRing1
                {
                  OFFSET 9.1045 -0.0439 -1.8651
                  CHANNELS 6 Xposition Yposition Zposition Zrotation Xrotation Yrotation
                  JOINT LeftHandRing2
                  {
                    OFFSET 3.154 0 0
                    CHANNELS 6 Xposition Yposition Zposition Zrotation Xrotation Yrotation
                    JOINT LeftHandRing3
                    {
                      OFFSET 2.9377 0 0
                      CHANNELS 6 Xposition Yposition Zposition Zrotation Xrotation Yrotation
                      End Site
                      {
                        OFFSET 2.6475 0 0
                      }
                    }
                  }
                }
                JOINT LeftHandPinky1
                {
                  OFFSET 8.0778 -0.4887 -3.8061
                  CHANNELS 6 Xposition Yposition Zposition Zrotation Xrotation Yrotation
                  JOINT LeftHandPinky2
                  {
                    OFFSET 3.6 0 0
                    CHANNELS 6 Xposition Yposition Zposition Zrotation Xrotation Yrotation
                    JOINT LeftHandPinky3
                    {
                      OFFSET 2.1142 0 0
                      CHANNELS 6 Xposition Yposition Zposition Zrotation Xrotation Yrotation
                      End Site
                      {
                        OFFSET 1.9757 0 0
                      }
                    }
                  }
                }
              }
            }
          }
        }
        JOINT RightShoulder
        {
          OFFSET -4.57 10.9462 -2.628
          CHANNELS 6 Xposition Yposition Zposition Zrotation Xrotation Yrotation
          JOINT RightArm
          {
            OFFSET -10.5928 -0.5248 -2.2321
            CHANNELS 6 Xposition Yposition Zposition Zrotation Xrotation Yrotation
            JOINT RightForeArm
            {
              OFFSET -27.8415 0 0
              CHANNELS 6 Xposition Yposition Zposition Zrotation Xrotation Yrotation
              JOINT RightHand
              {
                OFFSET -28.3288 0 0.0001
                CHANNELS 6 Xposition Yposition Zposition Zrotation Xrotation Yrotation
                JOINT RightHandPinky1
                {
                  OFFSET -8.0767 -0.4885 -3.806
                  CHANNELS 6 Xposition Yposition Zposition Zrotation Xrotation Yrotation
                  JOINT RightHandPinky2
                  {
                    OFFSET -3.6 0 0.0001
                    CHANNELS 6 Xposition Yposition Zposition Zrotation Xrotation Yrotation
                    JOINT RightHandPinky3
                    {
                      OFFSET -2.1142 0 0
                      CHANNELS 6 Xposition Yposition Zposition Zrotation Xrotation Yrotation
                      End Site
                      {
                        OFFSET -1.9757 0 0
                      }
                    }
                  }
                }
                JOINT RightHandRing1
                {
                  OFFSET -9.1036 -0.0439 -1.8651
                  CHANNELS 6 Xposition Yposition Zposition Zrotation Xrotation Yrotation
                  JOINT RightHandRing2
                  {
                    OFFSET -3.154 0 0
                    CHANNELS 6 Xposition Yposition Zposition Zrotation Xrotation Yrotation
                    JOINT RightHandRing3
                    {
                      OFFSET -2.9377 0 0
                      CHANNELS 6 Xposition Yposition Zposition Zrotation Xrotation Yrotation
                      End Site
                      {
                        OFFSET -2.6475 0 0
                      }
                    }
                  }
                }
                JOINT RightHandMiddle1
                {
                  OFFSET -9.5325 0 0
                  CHANNELS 6 Xposition Yposition Zposition Zrotation Xrotation Yrotation
                  JOINT RightHandMiddle2
                  {
                    OFFSET -3.6982 0 0
                    CHANNELS 6 Xposition Yposition Zposition Zrotation Xrotation Yrotation
                    JOINT RightHandMiddle3
                    {
                      OFFSET -2.9509 0 0
                      CHANNELS 6 Xposition Yposition Zposition Zrotation Xrotation Yrotation
                      End Site
                      {
                        OFFSET -2.8339 0 0.0001
                      }
                    }
                  }
                }
                JOINT RightHandIndex1
                {
                  OFFSET -9.1083 -0.5168 2.2601
                  CHANNELS 6 Xposition Yposition Zposition Zrotation Xrotation Yrotation
                  JOINT RightHandIndex2
                  {
                    OFFSET -3.6764 0 0
                    CHANNELS 6 Xposition Yposition Zposition Zrotation Xrotation Yrotation
                    JOINT RightHandIndex3
                    {
                      OFFSET -2.8831 0 0
                      CHANNELS 6 Xposition Yposition Zposition Zrotation Xrotation Yrotation
                      End Site
                      {
                        OFFSET -2.3927 0 0
                      }
                    }
                  }
                }
                JOINT RightHandThumb1
                {
                  OFFSET -2.4648 -1.5727 2.6826
                  CHANNELS 6 Xposition Yposition Zposition Zrotation Xrotation Yrotation
                  JOINT RightHandThumb2
                  {
                    OFFSET -3.2298 -1.8647 1.8647
                    CHANNELS 6 Xposition Yposition Zposition Zrotation Xrotation Yrotation
                    JOINT RightHandThumb3
                    {
                      OFFSET -2.6526 -1.5314 1.5314
                      CHANNELS 6 Xposition Yposition Zposition Zrotation Xrotation Yrotation
                      End Site
                      {
                        OFFSET -1.9546 -1.1285 1.1285
                      }
                    }
                  }
                }
              }
            }
          }
        }
      }
    }
  }
  JOINT LeftUpLeg
  {
    OFFSET 8.2078 -6.7517 -1.5996
    CHANNELS 6 Xposition Yposition Zposition Zrotation Xrotation Yrotation
    JOINT LeftLeg
    {
      OFFSET 0 -44.3705 0.2846
      CHANNELS 6 Xposition Yposition Zposition Zrotation Xrotation Yrotation
      JOINT LeftFoot
      {
        OFFSET 0 -44.4279 -2.9822
        CHANNELS 6 Xposition Yposition Zposition Zrotation Xrotation Yrotation
        JOINT LeftToeBase
        {
          OFFSET 0 -8.7287 10.7106
          CHANNELS 6 Xposition Yposition Zposition Zrotation Xrotation Yrotation
          End Site
          {
            OFFSET 0 -0.0007 9.2781
          }
        }
      }
    }
  }
  JOINT RightUpLeg
  {
    OFFSET -8.2078 -6.7517 -1.5996
    CHANNELS 6 Xposition Yposition Zposition Zrotation Xrotation Yrotation
    JOINT RightLeg
    {
      OFFSET 0 -44.3705 0.2862
      CHANNELS 6 Xposition Yposition Zposition Zrotation Xrotation Yrotation
      JOINT RightFoot
      {
        OFFSET 0 -44.4277 -2.9838
        CHANNELS 6 Xposition Yposition Zposition Zrotation Xrotation Yrotation
        JOINT RightToeBase
        {
          OFFSET 0 -8.7287 10.7106
          CHANNELS 6 Xposition Yposition Zposition Zrotation Xrotation Yrotation
          End Site
          {
            OFFSET 0 -0.0007 9.2781
          }
        }
      }
    }
  }
}
MOTION
Frames:	4
Frame Time:	0.0333333
-1.06218 88.2488 0.621538 0.0522367 -5.45316 -46.3231 0 10.1816 0.1315 -1.95699 9.24296 7.5527 0 10.0835 -1.0008 -0.916152 2.17162 1.02474 0 9.1 -1.3734 -0.894673 2.18722 1.01704 -1.11022e-016 16.6717 -2.5162 4.419 1.12137 13.174 0 9.6179 1.685 -3.91066 7.47952 20.6962 -3.55271e-015 17.8152 2.585 -1.68967e-015 0 -3.97569e-016 3.0676 6.4095 9.2836 -1.68967e-015 0 -3.97569e-016 -3.0676 6.4095 9.2835 -1.68967e-015 0 -3.97569e-016 4.5704 10.946 -2.628 -8.61707 0.572558 3.67365 10.5924 -0.5246 -2.2321 -67.9227 -32.7083 -45.2099 27.8415 -0.0001 0 -0.000286829 2.14874e-005 -106.358 28.3288 -7.10543e-015 -1.42109e-014 -15.7588 4.04095 -6.87556 2.4661 -1.575 2.6824 -6.63196 -4.74548 -12.3323 3.2298 -1.8647 1.8647 2.55316 12.2142 42.1049 2.6526 -1.5315 1.5315 27.259 3.36613 7.40136 9.1093 -0.5171 2.2601 -45.759 -2.23587 2.52046 3.6764 0 7.10543e-015 -87.4947 -5.59999 5.84994 2.8831 0 0 -50.6978 -2.14594 4.52794 9.5334 1.42109e-014 -7.10543e-015 -39.6749 -2.80327 2.6451 3.6982 0 7.10543e-015 -95.2415 -6.38928 5.83099 2.9509 0 0 -50.9569 -2.16649 4.5447 9.1045 -0.0439 -1.8651 -39.6805 -2.80955 4.10363 3.154 0 -7.10543e-015 -112.738 -8.10918 5.39906 2.9377 0 0 -62.7352 -3.17331 5.20309 8.0778 -0.4887 -3.8061 -45.2613 -9.07379 3.70033 3.6 0 -7.10543e-015 -84.4662 -5.2916 5.82817 2.1142 0 7.10543e-015 -118.594 -8.6439 5.13933 -4.57 10.9462 -2.628 -5.23542 1.81436 13.2489 -10.5928 -0.5248 -2.2321 64.7892 12.3416 53.0667 -27.8415 0 -7.10543e-015 6.10352e-005 -1.59493e-014 105.988 -28.3288 0 0.0001 8.39649 -5.59458 18.5713 -8.0767 -0.4885 -3.806 44.7284 -8.61531 -2.74384 -3.6 0 0.0001 84.6743 -4.21328 -4.62546 -2.1142 0 0 118.833 -6.87902 -4.06873 -9.1036 -0.0439 -1.8651 39.0499 -2.43995 -3.23941 -3.154 0 0 112.98 -6.45457 -4.27631 -2.9377 0 0 62.8855 -2.52845 -4.1342 -9.5325 0 -3.55271e-015 39.0138 -2.43242 -1.78259 -3.6982 -1.42109e-014 -7.10543e-015 95.4704 -5.08796 -4.62451 -2.9509 0 -3.55271e-015 51.0734 -1.7264 -3.6146 -9.1083 -0.5168 2.2601 45.088 -1.76924 -1.57656 -3.6764 0 -7.10543e-015 87.7094 -4.46022 -4.64199 -2.8831 -1.42109e-014 -7.10543e-015 50.8136 -1.71003 -3.59929 -2.4648 -1.5727 2.6826 7.22013 -5.53917 14.5729 -3.2298 -1.8647 1.8647 -2.8354 12.5798 -43.9355 -2.6526 -1.5314 1.5314 -28.1821 6.87896 -12.8222 8.2078 -6.7517 -1.5996 18.4134 -27.9211 17.8668 -3.55271e-015 -44.3705 0.2846 8.07757 58.2063 -13.1879 -3.55271e-015 -44.4279 -2.9822 -14.4914 -21.5769 -13.9736 0 -8.7287 10.7106 2.53773e-006 -1.59404 -2.89814e-005 -8.2078 -6.7517 -1.5996 -28.3979 -17.7173 -21.5917 3.55271e-015 -44.3705 0.2862 -14.3751 57.9413 2.41683 0 -44.4277 -2.9838 22.3158 -24.8467 3.83544 0 -8.7287 10.7106 -1.04336e-006 -0.013006 1.26286e-005 
-1.40392 87.9368 1.02523 -0.870779 -6.34027 -45.1608 0 10.1816 0.1315 -0.972969 8.92045 6.78169 0 10.0835 -1.0008 -0.623087 1.87546 0.931233 0 9.1 -1.3734 -0.605893 1.88876 0.92938 -8.88178e-016 16.6717 -2.5162 3.46618 3.25511 11.9326 -1.77636e-015 9.6179 1.685 -5.38183 10.0778 20.3889 -3.55271e-015 17.8152 2.585 1.98785e-015 -3.18055e-015 -0 3.0676 6.4095 9.2836 1.98785e-015 -3.18055e-015 -0 -3.0676 6.4095 9.2835 1.98785e-015 -3.18055e-015 -0 4.5704 10.946 -2.628 -9.95159 1.0457 1.50025 10.5924 -0.5246 -2.2321 -65.1595 -31.4798 -44.2612 27.8415 -0.0001 1.42109e-014 -0.000213917 -2.98147e-006 -101.268 28.3288 0 0 -10.8052 2.81333 -8.81527 2.4661 -1.575 2.6824 -6.63196 -4.74548 -12.3323 3.2298 -1.8647 1.8647 2.55316 12.2142 42.1049 2.6526 -1.5315 1.5315 27.259 3.36613 7.40136 9.1093 -0.5171 2.2601 -45.759 -2.23587 2.52046 3.6764 0 7.10543e-015 -87.4947 -5.59999 5.84994 2.8831 7.10543e-015 0 -50.6978 -2.14594 4.52794 9.5334 0 7.10543e-015 -39.6749 -2.80327 2.6451 3.6982 0 0 -95.2415 -6.38928 5.83099 2.9509 7.10543e-015 0 -50.9569 -2.16649 4.5447 9.1045 -0.0439 -1.8651 -39.6805 -2.80955 4.10363 3.154 0 0 -112.738 -8.10918 5.39906 2.9377 1.77636e-015 0 -62.7352 -3.17331 5.20309 8.0778 -0.4887 -3.8061 -45.2613 -9.07379 3.70033 3.6 2.84217e-014 7.10543e-015 -84.4662 -5.2916 5.82817 2.1142 0 -7.10543e-015 -118.594 -8.6439 5.13933 -4.57 10.9462 -2.628 -4.61607 1.80906 13.5249 -10.5928 -0.5248 -2.2321 63.0897 12.4843 54.0828 -27.8415 1.42109e-014 -7.10543e-015 1.56077e-005 -3.2444e-006 102.276 -28.3288 1.42109e-014 0.0001 7.31925 -8.78156 19.1249 -8.0767 -0.4885 -3.806 44.7284 -8.61531 -2.74384 -3.6 -1.42109e-014 0.0001 84.6743 -4.21328 -4.62546 -2.1142 0 -1.42109e-014 118.833 -6.87902 -4.06873 -9.1036 -0.0439 -1.8651 39.0499 -2.43995 -3.23941 -3.154 0 0 112.98 -6.45457 -4.27631 -2.9377 0 0 62.8855 -2.52845 -4.1342 -9.5325 0 0 39.0138 -2.43242 -1.78259 -3.6982 -1.42109e-014 0 95.4704 -5.08796 -4.62451 -2.9509 7.10543e-015 0 51.0734 -1.7264 -3.6146 -9.1083 -0.5168 2.2601 45.088 -1.76924 -1.57656 -3.6764 -2.84217e-014 -7.10543e-015 87.7094 -4.46022 -4.64199 -2.8831 0 -7.10543e-015 50.8136 -1.71003 -3.59929 -2.4648 -1.5727 2.6826 7.22013 -5.53917 14.5729 -3.2298 -1.8647 1.8647 -2.8354 12.5798 -43.9355 -2.6526 -1.5314 1.5314 -28.1821 6.87896 -12.8222 8.2078 -6.7517 -1.5996 17.8428 -27.1362 17.0565 3.55271e-015 -44.3705 0.2846 9.58153 58.9497 -15.2088 0 -44.4279 -2.9822 -14.4793 -22.3667 -14.0723 0 -8.7287 10.7106 -3.29627e-006 -1.67883 1.20446e-005 -8.2078 -6.7517 -1.5996 -28.2755 -16.002 -21.374 -3.55271e-015 -44.3705 0.2862 -15.4377 58.8222 3.77911 7.10543e-015 -44.4277 -2.9838 22.7976 -25.1768 3.33249 0 -8.7287 10.7106 -3.12092e-006 -0.284787 2.74561e-005 
-2.18982 87.6818 1.69564 -2.31522 -8.77283 -42.5007 0 10.1816 0.1315 0.146786 8.23028 6.01954 -8.88178e-016 10.0835 -1.0008 -0.356957 1.6251 0.849289 0 9.1 -1.3734 -0.342339 1.63611 0.848913 8.88178e-016 16.6717 -2.5162 2.38763 5.33714 10.4325 1.77636e-015 9.6179 1.685 -6.89837 17.188 17.9344 -3.55271e-015 17.8152 2.585 -1.19271e-015 3.18055e-015 -0 3.0676 6.4095 9.2836 -1.19271e-015 3.18055e-015 -0 -3.0676 6.4095 9.2835 -1.19271e-015 3.18055e-015 -0 4.5704 10.946 -2.628 -11.8392 1.51146 0.18039 10.5924 -0.5246 -2.2321 -61.2004 -23.909 -42.8013 27.8415 -0.0001 0 -0.000427156 9.36015e-006 -91.0984 28.3288 7.10543e-015 1.42109e-014 -3.16946 -0.777196 -12.4766 2.4661 -1.575 2.6824 -6.63196 -4.74548 -12.3323 3.2298 -1.8647 1.8647 2.55316 12.2142 42.1049 2.6526 -1.5315 1.5315 27.259 3.36613 7.40136 9.1093 -0.5171 2.2601 -45.759 -2.23587 2.52046 3.6764 2.84217e-014 7.10543e-015 -87.4947 -5.59999 5.84994 2.8831 -7.10543e-015 -7.10543e-015 -50.6978 -2.14594 4.52794 9.5334 7.10543e-015 -7.10543e-015 -39.6749 -2.80327 2.6451 3.6982 -1.42109e-014 -1.42109e-014 -95.2415 -6.38928 5.83099 2.9509 -7.10543e-015 -1.42109e-014 -50.9569 -2.16649 4.5447 9.1045 -0.0439 -1.8651 -39.6805 -2.80955 4.10363 3.154 -1.42109e-014 0 -112.738 -8.10918 5.39906 2.9377 0 -7.10543e-015 -62.7352 -3.17331 5.20309 8.0778 -0.4887 -3.8061 -45.2613 -9.07379 3.70033 3.6 0 -7.10543e-015 -84.4662 -5.2916 5.82817 2.1142 0 7.10543e-015 -118.594 -8.6439 5.13933 -4.57 10.9462 -2.628 -3.29016 1.90128 13.1598 -10.5928 -0.5248 -2.2321 59.6797 12.894 53.6138 -27.8415 -1.42109e-014 -7.10543e-015 -3.01595e-005 -4.66114e-006 98.7855 -28.3288 0 0.0001 6.37713 -14.1105 19.0323 -8.0767 -0.4885 -3.806 44.7284 -8.61531 -2.74384 -3.6 1.42109e-014 0.0001 84.6743 -4.21328 -4.62546 -2.1142 -7.10543e-015 -1.42109e-014 118.833 -6.87902 -4.06873 -9.1036 -0.0439 -1.8651 39.0499 -2.43995 -3.23941 -3.154 -1.42109e-014 0 112.98 -6.45457 -4.27631 -2.9377 1.77636e-015 -1.06581e-014 62.8855 -2.52845 -4.1342 -9.5325 0 0 39.0138 -2.43242 -1.78259 -3.6982 0 -1.42109e-014 95.4704 -5.08796 -4.62451 -2.9509 -1.42109e-014 -1.42109e-014 51.0734 -1.7264 -3.6146 -9.1083 -0.5168 2.2601 45.088 -1.76924 -1.57656 -3.6764 1.42109e-014 1.42109e-014 87.7094 -4.46022 -4.64199 -2.8831 0 7.10543e-015 50.8136 -1.71003 -3.59929 -2.4648 -1.5727 2.6826 7.22013 -5.53917 14.5729 -3.2298 -1.8647 1.8647 -2.8354 12.5798 -43.9355 -2.6526 -1.5314 1.5314 -28.1821 6.87896 -12.8222 8.2078 -6.7517 -1.5996 15.8672 -24.8685 15.096 0 -44.3705 0.2846 12.3073 59.2043 -18.9752 0 -44.4279 -2.9822 -14.4255 -23.3262 -14.1645 0 -8.7287 10.7106 5.3701e-006 -2.33698 -3.61384e-005 -8.2078 -6.7517 -1.5996 -28.9488 -12.1723 -21.4844 0 -44.3705 0.2862 -16.5343 60.4924 6.13121 -7.10543e-015 -44.4277 -2.9838 22.3143 -24.6954 1.12411 7.10543e-015 -8.7287 10.7106 0.314951 -2.02743 0.010171 
-3.36858 87.6145 2.63079 -3.91127 -12.7992 -38.655 -1.77636e-015 10.1816 0.1315 1.28014 7.12166 5.52687 0 10.0835 -1.0008 -0.112105 1.5198 0.821795 -1.77636e-015 9.1 -1.3734 -0.0981742 1.52737 0.819793 0 16.6717 -2.5162 1.25474 6.3605 9.06604 0 9.6179 1.685 -7.86747 23.987 15.1518 -1.77636e-015 17.8152 2.585 -4.41391e-032 -3.18055e-015 -7.95139e-016 3.0676 6.4095 9.2836 -4.41391e-032 -3.18055e-015 -7.95139e-016 -3.0676 6.4095 9.2835 -4.41391e-032 -3.18055e-015 -7.95139e-016 4.5704 10.946 -2.628 -12.9347 1.67788 -0.305446 10.5924 -0.5246 -2.2321 -57.6622 -10.6796 -40.578 27.8415 -0.0001 -1.42109e-014 -0.000184726 5.77822e-006 -76.103 28.3288 0 0 2.65574 -5.93595 -16.0548 2.4661 -1.575 2.6824 -6.63196 -4.74548 -12.3323 3.2298 -1.8647 1.8647 2.55316 12.2142 42.1049 2.6526 -1.5315 1.5315 27.259 3.36613 7.40136 9.1093 -0.5171 2.2601 -45.759 -2.23587 2.52046 3.6764 0 0 -87.4947 -5.59999 5.84994 2.8831 0 7.10543e-015 -50.6978 -2.14594 4.52794 9.5334 0 0 -39.6749 -2.80327 2.6451 3.6982 2.84217e-014 1.42109e-014 -95.2415 -6.38928 5.83099 2.9509 0 -7.10543e-015 -50.9569 -2.16649 4.5447 9.1045 -0.0439 -1.8651 -39.6805 -2.80955 4.10363 3.154 0 0 -112.738 -8.10918 5.39906 2.9377 -8.88178e-016 0 -62.7352 -3.17331 5.20309 8.0778 -0.4887 -3.8061 -45.2613 -9.07379 3.70033 3.6 -1.42109e-014 1.42109e-014 -84.4662 -5.2916 5.82817 2.1142 -7.10543e-015 0 -118.594 -8.6439 5.13933 -4.57 10.9462 -2.628 -1.31097 2.02978 11.8445 -10.5928 -0.5248 -2.2321 53.2323 13.8815 52.861 -27.8415 0 -7.10543e-015 6.10352e-005 9.08931e-015 96.2606 -28.3288 -1.42109e-014 0.0001 4.69932 -17.8352 17.9704 -8.0767 -0.4885 -3.806 44.7284 -8.61531 -2.74384 -3.6 -1.42109e-014 0.0001 84.6743 -4.21328 -4.62546 -2.1142 0 -7.10543e-015 118.833 -6.87902 -4.06873 -9.1036 -0.0439 -1.8651 39.0499 -2.43995 -3.23941 -3.154 -1.42109e-014 1.42109e-014 112.98 -6.45457 -4.27631 -2.9377 3.55271e-015 -7.10543e-015 62.8855 -2.52845 -4.1342 -9.5325 1.42109e-014 -7.10543e-015 39.0138 -2.43242 -1.78259 -3.6982 -1.42109e-014 1.42109e-014 95.4704 -5.08796 -4.62451 -2.9509 3.55271e-015 -7.10543e-015 51.0734 -1.7264 -3.6146 -9.1083 -0.5168 2.2601 45.088 -1.76924 -1.57656 -3.6764 1.42109e-014 0 87.7094 -4.46022 -4.64199 -2.8831 0 0 50.8136 -1.71003 -3.59929 -2.4648 -1.5727 2.6826 7.22013 -5.53917 14.5729 -3.2298 -1.8647 1.8647 -2.8354 12.5798 -43.9355 -2.6526 -1.5314 1.5314 -28.1821 6.87896 -12.8222 8.2078 -6.7517 -1.5996 12.8422 -20.8432 12.4839 0 -44.3705 0.2846 15.9212 58.5361 -23.0058 0 -44.4279 -2.9822 -14.821 -23.9996 -15.3602 3.55271e-015 -8.7287 10.7106 -9.57276e-007 -3.96861 1.93333e-005 -8.2078 -6.7517 -1.5996 -30.545 -6.39901 -21.6446 0 -44.3705 0.2862 -17.1912 62.8822 8.57197 0 -44.4277 -2.9838 20.503 -22.7595 -2.75447 0 -8.7287 10.7106 1.19161 -4.82258 0.0858627 
